<mxfile host="65bd71144e">
    <diagram id="HIP3nbAZw_EuaXWnEj3U" name="Page-1">
        <mxGraphModel dx="454" dy="315" grid="1" gridSize="10" guides="1" tooltips="1" connect="1" arrows="1" fold="1" page="1" pageScale="1" pageWidth="850" pageHeight="1100" math="0" shadow="0">
            <root>
                <mxCell id="0"/>
                <mxCell id="1" parent="0"/>
                <mxCell id="18" value="http://ics2o.mths.ca" style="swimlane;whiteSpace=wrap;html=1;" vertex="1" parent="1">
                    <mxGeometry x="45" y="20" width="760" height="480" as="geometry"/>
                </mxCell>
                <mxCell id="19" value="Volume of a Sphere Query String, in JS" style="whiteSpace=wrap;html=1;fontSize=20;" vertex="1" parent="18">
                    <mxGeometry y="24" width="760" height="60" as="geometry"/>
                </mxCell>
                <mxCell id="20" value="5 mm" style="text;html=1;align=left;verticalAlign=middle;resizable=0;points=[];autosize=1;fontSize=15;" vertex="1" parent="18">
                    <mxGeometry x="75" y="220" width="60" height="30" as="geometry"/>
                </mxCell>
                <mxCell id="21" value="Volume is: 523.6mm³" style="text;html=1;align=left;verticalAlign=middle;resizable=0;points=[];autosize=1;fontSize=15;" vertex="1" parent="18">
                    <mxGeometry x="15" y="310" width="160" height="30" as="geometry"/>
                </mxCell>
                <mxCell id="26" value="Formula" style="text;html=1;align=left;verticalAlign=middle;resizable=0;points=[];autosize=1;fontSize=25;" vertex="1" parent="18">
                    <mxGeometry x="15" y="100" width="120" height="40" as="geometry"/>
                </mxCell>
                <mxCell id="27" value="V = 4/3 π r³" style="text;html=1;align=left;verticalAlign=middle;resizable=0;points=[];autosize=1;fontSize=23;" vertex="1" parent="18">
                    <mxGeometry x="15" y="140" width="140" height="40" as="geometry"/>
                </mxCell>
                <mxCell id="25" value="Please enter the radius of the sphere:" style="text;html=1;align=left;verticalAlign=middle;resizable=0;points=[];autosize=1;fontSize=20;" vertex="1" parent="18">
                    <mxGeometry x="15" y="180" width="360" height="40" as="geometry"/>
                </mxCell>
                <mxCell id="24" value="Radius:" style="text;html=1;align=left;verticalAlign=middle;resizable=0;points=[];autosize=1;fontSize=15;" vertex="1" parent="18">
                    <mxGeometry x="15" y="220" width="70" height="30" as="geometry"/>
                </mxCell>
                <mxCell id="23" value="&lt;font style=&quot;font-size: 19px;&quot;&gt;CALCULATE&lt;/font&gt;" style="rounded=1;whiteSpace=wrap;html=1;fontSize=20;" vertex="1" parent="18">
                    <mxGeometry x="15" y="260" width="135" height="40" as="geometry"/>
                </mxCell>
                <mxCell id="28" value="" style="shape=image;verticalLabelPosition=bottom;labelBackgroundColor=default;verticalAlign=top;aspect=fixed;imageAspect=0;image=data:image/png,iVBORw0KGgoAAAANSUhEUgAAAJAAAACRCAYAAAAsGjEdAAAAAXNSR0IArs4c6QAAAARnQU1BAACxjwv8YQUAAAAJcEhZcwAADsMAAA7DAcdvqGQAABo+SURBVHhe7Z1XcxvXFcf/i16JXkgCIAgWUZQUWsWSLXkSJXY840kZOzMZP0VfIC/5KHnNS5JJZvLgyUsSP3gSeVIkmVZlk0SRIkGCIEj0ulyUxe7mQdg1tKREVBIg9zezg3Iuyu7+9+4t59xDcBzHQUKiRWTiNyQkmkESkERbSAKSaAtJQBJtIQlIoi0kAUm0hSQgibaQBCTRFpKAJNqCOK0j0RzHIZVKIZlMIp1OI5vNIp/Pg6IoFItFVCoV0DQNlmUBADKZDCqVCmq1GlqtFnq9HgMDA7BYLLBarbDb7TCZTCAIQvxTJ5oTLSCWZUHTNKrVKkqlEmKxGBKJBBKJBFKpFAYGBmC1WmEymTAwMACDwQCdTge1Wg2VSgWlUikIgv+uSqWCUqkEiqJQKBSQz+eRzWaRTqdRqVRgs9ngcDjgdDrhcDigUqmgUCigUCggk528Cv/ECYjjOBQKBRQKBWSzWWSzWZAkCYqiYLfbYbfbYbPZYLFYoFQqxR9vGY7jUC6XkU6nkUqlkEgkkM1mYTQaYTQaYbFYYDKZYDQaodfrxR/vW06MgCiKQiwWQywWQ7lcBgBoNBpYrVZYrVaYzWbI5XLxx7oKTdNIp9PCVq1WAQB6vR5utxsOhwNqtVr8sb6irwXEcRzy+TxWV1eRSCSg0+lgs9lgs9lgNBqh0+mOXDRvolqtgiRJFAoFJBIJQVDDw8OYnJzsWyH1rYAKhQLm5+exs7MDr9eLkZERmEwmaLXanhHNm6BpGsViEalUCpubm4hEIjh79izOnj0LnU4nLt7T9J2A8vk85ubm8PDhQ9y4cQMzMzN9d9DF5PN5fPvtt1hfX8d7772HqakpaLVacbGepC8ExLIsMpkMNjY2sLa2Bp/Ph8uXL/dttX8QHMchk8ng0aNHyOVymJqagt/vh8Fg6OmhgZ4XUC6XQzgcRiQSgU6nw4ULF070eAtFUVhbW0MoFIJWq4XP58PQ0BAMBoO4aE/QswKqVCoIBoMIhULQ6XQYHx+Hw+GAQqEQFz0xsCyLVCoFhmFgMpkQi8WwsbEBAAgEAhgeHu65/e9JAWWzWTx+/BgMw2BychIul6tv2gTtUC6XEY/HYTabhVtXoVDA9vY2gsEgHA4HZmZmeurW3VMCYlkWsVgMDx8+hMvlwvT0dM+3AToFx3FIJpOoVqtwuVyvjVozDINMJoP5+XlUKhXcvHmzZzoOPSOgarWKpaUlPHv2DDdu3MDo6Ki4yImmWq1ia2sLbrf7reJYWFjA7OwsPvroI4yOjh77kMWxC4gfDJybm0M+n8f7778Ph8MhLnbi2d3dBQAMDg6KTfuIRCK4f/8+fD4fpqenodVqj62WPlYBMQyDWCyGFy9ewGQy4fz58z11fz8qisUiwuEwRkZGGt7/QqGAp0+fguM4TE1NwWKxHIuIjk1AfJW9trYGj8eDqampEzlbfRgcxyEUCkGv1zdd81IUhefPnyObzWJmZqbpz3eCYzljLMtidXUVCwsLGBsbw+Tk5KkUD2o1CcdxsFqtYtOh8ONiTqcTt2/fFm6DR8mxnLXV1VXcv38f7777LkZHR3tubOOoYBgGiUQCVqu15cawWq3G+fPncfnyZfzlL39BOBwWF+kqR3oLq1arWFlZwd27d/HZZ5/B6XSKi5waOI5DOp1GsViE2+3uyEUUDodx+/Zt/PCHP4TP5zuSWr37v1CjWq3i5cuXePLkCT799NNTLR7UZuRJkoTBYGi59hHj9Xpx48YNPHnyBJFIRHDH7SZHIqBqtYpgMIjV1VXcvHkTLpdLXORUwXEcSJKESqWCXq/vaO8pEAhgYmICS0tLiMfjXRdR1wXEcRx2dnYQDAZx4cIFDA8Pi4ucOmiaxt7eHvR6fUduXfUoFAqcOXMGQ0NDWFhYAEmS4iIdpesCKhQKWF5eht/vx8jIyJHcl3sdkiRBEETXpmlUKhWmp6dhNpsxOzsrNneUrp/N2dlZOBwOTE1Ndexe3+9kMhlYLJauXkwqlQrXrl0DQRD4z3/+IzZ3jK7tAcMwmJ2dBcdxeOedd8TmU0s8HodSqTyyyIwPP/wQ8XgcT58+7Up7qGsCCgaDWF5exvXr17t6pfUT5XIZqVTqSHugcrkcN2/exPLyMqLRqNjcNl05s7FYDCsrK/jkk08wMDAgNp9KOI5DLBaD1WqFRqMRm7uK3W7HhQsX8PLlS+RyObG5LTouIJIkMTc3h0Ag0NDM8qmAe+VhybIsbDab2Np1ZDIZ/H4/lEolVlZWUKlUxEVapuMCCgaD0Ol08Pv9YtOpRqlUwuPxdLzb3ihqtRrj4+NIpVLIZDJic8t0VEDJZBKxWAyTk5NvdYo6dRCvaoHjEg8AEAQBp9MJn8+HZ8+eCVGy7dIxAdE0jbW1Nej1etjtdrFZokeYmJhALpdDMBgUm1qiYwJKpVLIZrM4e/bssV5pvUER2WQSyVQK2VwehXwGqWQSqVxRXPDI4ceHFhYWUCgUxOam6ZiAFhcXMTw8DIvFIjadQjiwDIPc7hZCW9tIxKLYiWxhJ0WLCx4LQ0NDcLvdmJubE5uapiMC2traAkmSGB8fF5tOKTpYXS6o5IBKNwDXoAf+0TGMuHsnOPDixYuIx+OIx+NiU1N0RECzs7OYmZk5FbFbjZNFiSag1g5AbzDCOGDCgK4jh7sjGAwGTExM4Pnz52JTU7S9RysrK1AqlRgbGxObTjfJBChOBa2xdwdSx8fHUSwWEYlExKaGaUtAlUoFL168wKVLl8SmU0+ZLIOTq6E2ii29g1qthtvtRigUarlb35aAwuEwNBqN5ONzAEWNCQ67BUczZdoaCoUCg4ODKBaLLQ8utiwgmqYRCoUwNjYmuWkcgNntxbDbisaivI4Pi8UCg8GAWCzW0mx9ywJKp9NgWRYOh0Oaba/BcRyOMEahI6jVajgcDmQyGZRKJbH5UFo+8/F4XFiHUOIVe3t7SCaTYBhGbOppnE4nCoUCKIoSmw6lJQFRFIVsNguHw9HRpXL7GYZhkMvlQBBE39XIBoMBVqsV29vbYtOhtLSnJEmiUqm0FE15EuE4DsViERzHwWg0dsXPudt4vd6WghKbFhDHccjlclAqlT277NpRw7Is8vk8tFptw4sj9BoOhwPFYhH5fF5seitNC4hhGMTj8RO/3Fwz7O3toVKp9LX3pUqlgsfjwYsXL8Smt9K0gFiWRTKZPPXBgfUkk0mYTKa+bw/6/f7uCyibzYJlWan9UyOdToMgiBPhhTA0NIR8Pt+Um0fTAgqHw3C73eK3TyX87fwk1cZ+v7+pubGmV+f429/+hpmZmZ71eeZ3h2VZYWBPvPHl6p/XP4rhOG5fz4ogCORyORSLRSF4gCCIQ7de7+I/e/YMsVgMP/rRj8SmA2lKQNVqFb///e/xq1/96lhcNziOA8MwYBgGLMuiWq2CZVnhNf/YxC4dCEEQr4lG/H0EQaBSqYCiKBiNxjeKgv8eMTKZDDKZDHK5HHK5XPCXrn/9pu/sNiRJ4ssvv8Qvf/nLhqaomhJQPB7HV199hVu3bolNHYVhGCFjIJ/kjU8ch1qwXP1J4K/s+k185ddvqKst+Of1jzxvEhC/HLFKpXqt7VNfy/GfOagmZFlW2PiLgn/NP5fL5ULSO37jk9eJ/2en+eKLL/Dxxx/DbDaLTftoSkCLi4uIRqP4+OOPxaaW4TPXFItFlEollEolMAwjHDC1Wi08VyqVgjhwgAjeJIROQ5IkMpkM7HY7NBpN079XL7CDnnMc99rFw2/lchkEQUClUkGr1QqbSqXqaI31r3/9C2NjYwgEAmLTPpoS0Ndffw2bzdZWrHupVEKhUBCyCDIMA61WC51OB51O15UD0kkYhkE0GoVCoYDT6WxaPO1C07SQcnNvbw8URYFlWeh0OhgMBuj1+rbzpH377bdQq9W4ePGi2LSPpgT0xRdf4Pr16/B4PGLTa/DVMsMwqFaroChKqF1QWxxSr9cLYjnqk9AqHMeBoiik02nY7fZjaQceRLVaFWpxflCTTw6s0WigVqtfa18dxvLyMuLxOH7wgx+ITftoWEAcx+F3v/sdbt26deAMPC8aXih8m4VlWWFndDrdkdzDuwXLsohGo1AqlceypG6j8OehWCwKM+wKhQJKpRJqtRrqWlLhN52Hra0tLCws4Kc//ekby/AcLscaNE0LtxsxpVIJyWQSOzs7yOVyYBgGGo0GdrsdXq8XbrdbGKk97A91DZZBKbWLcDiM8HYUebp5F04+HXgjjcvjRC6XCwGePp8PbrdbmLckSRLxeBzRaBSFQgHsAU5kGo1GuIMcRsMCIkly30wz75DNL+hosVjgcDjgcDhgsVig1WobqjKPBIKAQqeBjCsgmc4DzP4DdxixWKwvpyxUKhUGBgZgt9vhcDhgs9mgUqmElJu5XO41IcnlciiVyoYczBo+u6VSSVgUiamtbxyJRKBQKODxeGC322EwGHq3AUzIoNDqoFXLodaYoZI1JwJ+CsdkMolNfQNBEFAqldDpdLBYLBgeHobVakUymUQ4HAZNvwp8lMlkUCqVwuu30fCZLpfL0Gg0qFarCIfDIEkSXq8XLpdLaKQd2+2pQbhSFXSWBqFWgJA1/l+52to+bre7Ny+OFuBFYjab4ff7odVqsbGxgXw+L4yvdVRAlUoFCoUC29vb0Gq1TSUGOVYqJZCFAgqFArLkHnJVAkajEo14ojAMA4qiEI1GoVKpTqz/k1wuh9PpxODgICKRCHK5HORyeUOhPg0LqFqtolQqQaPR7EuI1qvQRRKpyCaC2xlkM2lkErsgGTm0cgUOGyVhWVZYxWJnZwelUgnlcllc7ERhNBrh8/mENlEjjeiGu/Hz8/NYX1/HpUuXetqRzOv1vnpCl5DcDWMnDwx5A7AbWJDRdQTzGvhGvDDrXknoTW6cXG0x8GLxuxU1zGYzVCrVa+VOIslkEtFoFOfOnYPP5xObX6NhAT148ACLi4v4/PPPxaaewmishYJSOYS3tlDQenHGa4KcraIQXkNYZobPOwhDrQJ9k+8LW3Ocy2azwnvDw8NHtrrqcbK6uirksO+YgJaWlvD111/j1q1bfeFMVs6nsRWKQDYSwKhRD5YuI7y+CrnFA6/bgsOa0Pyo8/b2NiiKgs1mg9fr7fmOQif48ssvQdM0Ll++fKiAGm7IKBQKDA0N4d///rcQgdDLqBUKaFUyVLKvJiHjmy+QKb1at4euMjjs7xMEAb1ejzNnzuDixYvw+XwnXjw0TePx48fI5/Mwm80NtXMPL1FDqVTCZDLB7/fjzp07CIfDHV3ts+PoBmBxuaCtphDZDqNiGITTrEO1mEMsTaHa/DjiiYVlWWQyGTx+/Bjr6+v44IMPgFqlcRgN38K2trYwPz+Pn/zkJ3j+/DkikQicTie8Xi9sNltDapXoLfiOQjgcRjQahUajwblz58BxHB49eoR33nnn0PUuGz7rarUaFEVBLpdjenoaly5dAsuyePLkCe7evYvt7e0D51UkepNsNosnT57gf//7H5LJJEZGRvDuu+/CZDKBrXl7NjJl07CA9Hq9kDqIH3j63ve+h2vXrsFisWB+fh5//etfsbi42FKMtUT3KZfL2NzcxFdffYV//vOfoGkaFy9eFFKP8oJhWRY0TTc0UNzwLYzjOPz2t7/Fb37zmwMbk2zNzXNpaQkvX76Ew+HA9PQ0xsbGDpzBlzg6tra28OLFC2xubsJkMuHChQtvzZIdjUZx7949/OIXvzjwXNfTsIAA4I9//CN+/vOfH9qNL5VK2NnZQSgUwu7uLgwGAxwOB1wuF4xGI1QqleCi2g9zaL0O77jH+45TFIVkIolYPIZ4PA6z2YyRkRGMjIw0NBm8vr6O9fX1hlyXmxLQ3//+d0xPTze1Gmu1WkUs9mpH4vE4yuWy4H5Z78bKOzrxPtCSqA6GF0q5XBac93jHsb29PZAkCZZhYXfY4XK54HA4vhtcbZCFhQVQFIX3339fbNpHUwL65ptvAADXr18XmxqGoijk83khAvKgMSWFQrHPT5oXWTu+vv0Cx3GCQHhx8I+VSkU4XvyjWq2G0WiE0WjEwMBA24l879y5A5vNhunpabFpH00JaH19HYuLi/jss8/EppbhJ2nL5bKw8VcW/5q/4vieAe84zotLo9FAo9H0jcjK5fJrUSj1Itnb20OpVAJBEEJtrNFooFKphP3ka2r++dvcU1vhH//4By5fvoyhoSGxaR9NCYiiKPzhD3/Ar3/9a7Gpo3B1sVL8I9+15A82H9VRf/CLxSLK5TLkcvm+g10fIsRv9cF8vMM57wuD2mh0/X/iN/7/8G6ffBukWq3uC8fhL4h60ajVamg1tbAc3atH/qLQ6/XQ6/VQ1kKYxP+LqAtf6hZ/+tOf8Pnnn3e2F8bz5z//GZ988smhA0zHBcdxqFQqgqDENRnf0OQ3/uQzDAOWYcFy3wX81X8nf+IIghBOJC88/mTzHQNlzXmdrzXUtaACfuu2ANphZ2cHDx48wKeffio2HUjTArp9+zYGBwdx7tw5sUniBDA7OwuCIPDee++JTQdy8EDAW/D5fNjd3RW/LXFC2NjYODTur56mBeR2u5HP51FqwGNfor8gSRL5fL6ppMBNC0ir1cJoNCKZTIpNEn1OOByGx+NpyuuyaQHJZDLYbLa20wRJ9B6bm5s4c+aM+O230rSA+InUVCqF8gl3Mj9N7O3tIZVKYWJiQmx6K00LCLWFqZVKZcsJOiR6D/721SwtCYgf9Eomk5IP0AmApmns7Owc6v98EC0JSKlUwmaztZygQ6K3yGQyYFkWNptNbDqUlgSEugQd9XFTEv1JPB6HwWBoyW+rZQEZDAbY7XZsbGw0FMEo0Zvk83mk02m4XK6GXFjFtCwggiAQCAQQCoWk21ifwnEcUqkUaJqGw+FoaY6uZQEBgN1uh9VqxdOnT8UmiT6gUqlge3sbTqez5YUj2hIQAMzMzCAYDCKXy4lNEj1OMpkERVFtLRrftoCsViuGh4extLQkNkn0OMvLyxgaGmra5bWetgUEAFevXkUkEkEsFhObJHqUUCiEbDbb9NSFmI4ISKPR4OzZs1JbqI+4e/cuLl261NTE6UF0REAAMDExAYZhEAwG9znJS/QOfDSxzWZraCX6w+iYgNRqNTweDzY3N6XI1B4mk8lgc3MTly9fFptaomMCkslk8Pv9UKlUCIVCDa2vJ3G0FItFrKysYHx8vKVpi4PomIBQS2EwOjqKYDAozdT3GCzLCncHv9//xrDmZunMt9ThdrsxNDSE+fl5sUniGMnlctje3kYgEGh50PAgOi4guVyOS5cugaZpPHz4UHL36AFomsbi4iKsVisCgUDHah90Q0A8169fx4MHDxAOh6Ve2THCcRxevnyJeDyOqakpsbltuiYgs9mMn/3sZ1haWkIqlRKbJY6ISCSC5eVlfP/73+/KCrNdExBqMWTj4+NYWlpCOp0WmyW6TCQSwdzcHK5du9a1zNJdFRAABAIBDAwMYGFhQVjhTKL7xONxPH78GGfPnm3J17lRui4gpVKJqakpsCyL+fn5hhJ4SLRHLpfD/fv34ff725ppb4SuC4iorbd85coVRCIRLC4uSj2zLkJRFB48eAC9Xo/JycmGlupth64LiMdkMuGjjz7CysoK5ubmpJiyLlAsFvHo0SMwDIOrV69Co9GIi3ScplfnaJdUKoX//ve/cLvdmJmZ6UrP4DSSy+UwOzsL1IZQBgYGxEW6wpELCADS6TQePnwIlUqFK1eutOXQJPHKs/DevXswGo24evVqR0eaD+NYBMRxHNLpNJaWlkAQBK5cuSLVRC2SSCTw4MEDOJ1OnD9/vqXQnHY4FgGhJqJSqYTHjx+DJEl8+OGHLYWVnGYSiQS++eYbTExMHEmD+SCOTUA8HMfhyZMn2NzcxAcffACbzXYsB6KfoGka29vbWFxcxPnz5xEIBFoKyekExy4gnpWVFTx9+hSBQACTk5PSLe0NZLNZPHv2DIlEAleuXOnqIGEj9IyAUFtif2VlBXK5HGNjY3A6nT2/ZO9RUalUEIlEEAwGoVarcf78eZjNZnGxI6enBMTVsgSur69ja2sLIyMjmJ6ePvUiIkkSS0tLyOVyGBsbg9/v75n2Yk8JiIemaSQSCTx9+hSlUqmrk4G9zsbGBpaWlmC1WjE1NQWr1dpRf5526UkB1bO8vIw7d+7gwoULuHjx4pGMrvYCJEni7t272NnZwY9//OPvslH3GD0vINRSA9y7dw+ZTAbnzp3D4OAgjEZjT12J7cLVVufP5XIIhUJYXl7G5OQkrly5cmw9rEboCwGhltIoGo3i+fPnIAgCNpsNw8PDsFqtfd/tr1QqSCQS2NnZQTqdhl6vx/T0NCwWS0+LB/0kIJ5yuYzd3V0Eg0GgFgni9XrhdDp7pmHZKMViEdFoFFtbW2AYBmq1GoFAAHa7vW/2pe8ExEPTNFKplJCLjGEYeDwejI6O9vwYUiaTQTAYRDweh0ajgcvlgtPphNls7rvatG8FhFq7gWVZlMtlJJNJrK+vY2NjA0NDQxgfH4fX620o48xRsLe3h42NDaytraFQKGB8fFzw1lSr1X3bnutrAR0EwzBYWVnBysoKstks3G43/H4/PB6PcKJkMlnH0ybxh5FPBcVxHPb29rC1tYWNjQ2kUikMDw/jzJkzGB0dFX+8bzlxAqqnUCggHA4LedHNZjNsNhssFgvMZjM0Gg3kcrmQN4wX15sExr0lXxhN0ygWi8hms0in00ilUqAoCh6PBz6fTxDwSeNEC6gehmGQSqWQTqeRyWSQzWYhk8mExHP8Vi8ksYB44fDi4ZPM8YnmZDIZzGYzrFYrrFZrX/Si2uXUCEgMV3MnqU9KV6lUBEEwtUyJ/OEh6hLM8WLjsyHy6TY7nXqyHzi1ApLoDP3Z9JfoGSQBSbSFJCCJtpAEJNEWkoAk2kISkERbSAKSaAtJQBJtIQlIoi3+D2E5LQbASDriAAAAAElFTkSuQmCC;" vertex="1" parent="18">
                    <mxGeometry x="580" y="100" width="169" height="170.17" as="geometry"/>
                </mxCell>
            </root>
        </mxGraphModel>
    </diagram>
</mxfile>